<svg xmlns="http://www.w3.org/2000/svg" width="600" height="600"><circle cx="-370" cy="50" r="50" fill="#c1d7e9" transform="matrix(6 0 0 6 2520 0)"/><path d="M404.894 502.286c-28.7 29.2-64.1 43.8-106.1 43.8-47.2 0-84.6-16.1-112.3-48.4-26.2-30.8-39.2-70-39.2-117.6 0-51.3 22.3-109.7 66.9-175.3 36.4-53.8 79.2-101 128.4-141.5-7.2 32.8-10.8 56.1-10.8 70 0 31.8 10 62.8 30 93 24.6 35.9 43.3 62.6 56.1 80 20 30.3 30 59.7 30 88.4 0 42.6-14.3 78.4-43 107.6zm-.8-164.2c-7.7-17.2-16.7-28.6-26.9-34.2 1.5 3.1 2.3 7.4 2.3 13.1 0 10.8-3.1 26.1-9.2 46.1l-10 30.8c0 17.9 9 26.9 26.9 26.9 19 0 28.5-12.6 28.5-37.7 0-12.8-3.8-27.8-11.5-45z" fill="#0d0f0f"/></svg>